<svg xmlns="http://www.w3.org/2000/svg" version="1.1" xmlns:xlink="http://www.w3.org/1999/xlink" xmlns:svgjs="http://svgjs.dev/svgjs" width="1000" height="1125" viewBox="0 0 1000 1125"><g transform="matrix(1,0,0,1,1.7053025658242404e-13,0)"><svg viewBox="0 0 320 360" data-background-color="#0c1d36" preserveAspectRatio="xMidYMid meet" height="1125" width="1000" xmlns="http://www.w3.org/2000/svg" xmlns:xlink="http://www.w3.org/1999/xlink"><g id="tight-bounds" transform="matrix(1,0,0,1,0,0)"><svg viewBox="0 0 320 360" height="360" width="320"><g><svg></svg></g><g><svg viewBox="0 0 320 360" height="360" width="320"><g><path d="M20.961 227.22l3.726 4.658-1.863-6.056c-0.466-2.795-3.726 0.466-1.863 1.398M25.153 224.425c1.397 2.329 2.795 4.658 2.795 6.987 0 3.261 2.795 4.658 5.123 5.589-3.261-3.726-5.124-13.974-7.918-12.576M204.017 26.929c7.918 0 15.371-0.932 23.756 0.931 20.495 5.124 37.729 15.371 49.374 29.811l32.606 52.169c1.397 13.042 4.192 27.482 3.726 43.319 3.261 0 2.795-4.658 6.521-5.59-3.726 9.316-5.59 20.961-6.521 34.469-2.329-7.453 0-18.632 0.466-24.687-3.261 5.124-5.124 1.397-5.124-0.932 0.466-3.726-1.397-3.261-2.795-4.658-5.124-4.658-8.384-9.782-12.11-17.7 2.329-6.055 2.795-14.905-4.658-19.563-2.329-1.397-5.124-3.726-6.521-7.453-1.863-5.124-5.124-11.179-4.193-19.097 0.466-2.329-6.987 5.124-11.179 1.863-18.166-12.576-36.332-27.016-58.224-39.127-11.645 0-20.029-4.192-24.221-9.316-3.726-4.658-0.932-10.713 4.658-11.179 3.261 0 6.987-0.932 9.782 0.932 0.466-1.863 2.329-4.192 4.657-4.192M157.904 16.215l0.932 0.466c4.658 0.932 6.987 7.453 12.11 5.124 0 3.261 0.466 6.521-0.466 8.85-1.397 3.726-5.59 3.726-8.85 3.726-31.208-1.863-49.374 11.179-68.471 22.358-5.124 3.261-10.713 5.59-14.906 9.782-20.029 18.632-41.921 35.866-47.045 70.335l-4.192 38.195c-0.466 4.192-5.124 8.384-4.192 13.508l3.26 22.824c-3.261-3.261-5.124 0.932-4.192 2.795 0.466 1.397 2.329 6.055 5.124 1.863 3.726 6.987 7.453 20.495 12.576 26.55 15.837 18.632 36.332 35.4 53.101 52.169 4.192-0.932 7.453-0.932 8.384-3.727 1.397 2.795-1.397 5.59-3.726 6.056 7.453 4.658 15.837 8.85 27.016 9.781 14.44 0.932 27.948 3.261 40.524 6.522 6.521-1.863 13.042-2.795 20.029-3.261 2.329 0 3.726-3.726 6.521-4.658l0.466-4.658c2.795 4.192 2.329-1.397 0.466-4.192 3.261 2.795 4.192 5.124 5.589 6.987 0-1.397 3.726-6.521 3.727-0.466l0.931-6.055c1.397-0.932 1.863 5.124 3.261 0.931 1.397-4.192 4.192-0.932 6.987-2.329-0.932 1.863-0.466 5.59 2.794 3.261l3.727-3.261c2.329 5.59 6.055 3.261 7.918 2.329 20.495-13.042 40.99-28.413 60.553-43.784l-0.466 6.055 2.329-7.453c2.329 2.329 4.192 0.466 5.124-0.931 2.795-4.658 6.521-9.316 12.577-13.508-7.453 20.029-16.303 35.866-27.482 48.908l-4.658 5.59c0 3.261-0.932 7.453-4.658 7.918-1.863 0.466-5.59-0.932-8.384 1.863-1.397 1.863 3.261 5.59-0.466 2.795-3.261-2.329-6.521 0-10.248 0.932-2.795 0.932 1.863 3.726 2.795 5.589 0.932 1.863 1.863 3.726 1.398 6.056l-5.124-5.59c-6.055 3.261-9.782 9.316-14.906 13.974-2.329 1.863-1.397 5.124-1.397 7.918-3.261 0-6.987-0.932-8.85 0.932-1.397 1.863-0.932 4.658-0.932 7.453-4.658-0.466-5.124-7.453-9.315-6.056-4.192 0.932-8.85 1.397-12.577 3.727 2.795 5.59-4.658 2.329-3.726 3.26-6.987-4.192-13.042-7.453-20.495-4.658-15.837-5.124-35.4-2.795-49.84-0.931 0-2.329 0.466-4.658-0.466-5.124-0.932 2.329-3.726 1.397-3.26 1.397-8.85-6.055-17.7-9.782-27.016-14.905-8.384 0.932-16.303-3.261-18.632-5.59-6.521-6.055-13.974-2.795-20.029-4.192-13.042-3.261-17.7-16.769-19.098-26.084-0.932-4.658-4.658-6.521-6.055-6.056-6.055-19.563-15.371-37.263-22.824-55.429-1.863-4.658-1.397-9.316-1.397-14.44 2.329 0.932 4.658 0.466 4.192-2.794-2.329-15.371-7.918-27.016-13.974-38.195 3.261-15.837 3.726-34.469 11.179-48.443 6.521-12.576 18.632-19.098 27.016-29.811 2.795-3.726 2.795-8.85 5.59-12.11 9.316-9.316 18.632-19.098 28.879-27.482 4.658-3.726 10.247 0 17.234-1.397 2.329-8.384 11.645-15.837 20.495-13.508 3.726 0.932 11.179-8.85 13.508-9.782 3.726-1.397 1.863 3.726 1.863 6.987 8.85-6.987 20.961-10.713 32.14-14.906" fill="#f9cc0b" fill-rule="nonzero" stroke="none" stroke-width="1" stroke-linecap="butt" stroke-linejoin="miter" stroke-miterlimit="10" stroke-dasharray="" stroke-dashoffset="0" font-family="none" font-weight="none" font-size="none" text-anchor="none" style="mix-blend-mode: normal" data-fill-palette-color="tertiary"></path></g><g transform="matrix(1,0,0,1,64,129.5238109829007)"><svg viewBox="0 0 192 100.9523780341986" height="100.9523780341986" width="192"><g><svg viewBox="0 0 192 100.9523780341986" height="100.9523780341986" width="192"><g><svg viewBox="0 0 192 100.9523780341986" height="100.9523780341986" width="192"><g id="textblocktransform"><svg viewBox="0 0 192 100.9523780341986" height="100.9523780341986" width="192" id="textblock"><g><svg viewBox="0 0 192 71.09774436090225" height="71.09774436090225" width="192"><g transform="matrix(1,0,0,1,0,0)"><svg width="192" viewBox="2.29 -37.99 103.89999999999999 38.480000000000004" height="71.09774436090225" data-palette-color="#f9cc0b"><path d="M23.75 0L20.75 0 19.95-3.81 19.75-3.81Q17.75-1.29 15.76-0.4 13.77 0.49 10.79 0.49L10.79 0.49Q6.81 0.49 4.55-1.56 2.29-3.61 2.29-7.4L2.29-7.4Q2.29-15.5 15.26-15.89L15.26-15.89 19.8-16.04 19.8-17.7Q19.8-20.85 18.44-22.35 17.09-23.85 14.11-23.85L14.11-23.85Q10.77-23.85 6.54-21.8L6.54-21.8 5.3-24.9Q7.28-25.98 9.63-26.59 11.99-27.2 14.36-27.2L14.36-27.2Q19.14-27.2 21.45-25.07 23.75-22.95 23.75-18.26L23.75-18.26 23.75 0ZM11.6-2.86L11.6-2.86Q15.38-2.86 17.54-4.93 19.7-7.01 19.7-10.74L19.7-10.74 19.7-13.16 15.65-12.99Q10.82-12.82 8.68-11.49 6.54-10.16 6.54-7.35L6.54-7.35Q6.54-5.15 7.87-4 9.2-2.86 11.6-2.86ZM36.15-37.99L36.15 0 32.1 0 32.1-37.99 36.15-37.99ZM48.8-26.76L48.8 0 44.75 0 44.75-26.76 48.8-26.76ZM44.4-34.01L44.4-34.01Q44.4-35.4 45.09-36.05 45.77-36.69 46.8-36.69L46.8-36.69Q47.77-36.69 48.48-36.04 49.19-35.38 49.19-34.01L49.19-34.01Q49.19-32.64 48.48-31.97 47.77-31.3 46.8-31.3L46.8-31.3Q45.77-31.3 45.09-31.97 44.4-32.64 44.4-34.01ZM68.69 0.49L68.69 0.49Q62.76 0.49 59.33-3.13 55.9-6.74 55.9-13.16L55.9-13.16Q55.9-19.63 59.09-23.44 62.27-27.25 67.64-27.25L67.64-27.25Q72.67-27.25 75.6-23.94 78.53-20.63 78.53-15.21L78.53-15.21 78.53-12.65 60.1-12.65Q60.22-7.93 62.48-5.49 64.74-3.05 68.84-3.05L68.84-3.05Q73.16-3.05 77.39-4.86L77.39-4.86 77.39-1.25Q75.24-0.32 73.32 0.09 71.4 0.49 68.69 0.49ZM67.6-23.85L67.6-23.85Q64.37-23.85 62.46-21.75 60.54-19.65 60.2-15.94L60.2-15.94 74.19-15.94Q74.19-19.78 72.48-21.81 70.77-23.85 67.6-23.85ZM96.03 0L91.3 0 81.14-26.76 85.49-26.76 91.25-10.89Q93.2-5.32 93.54-3.66L93.54-3.66 93.74-3.66Q94.01-4.96 95.44-9.02 96.87-13.09 101.85-26.76L101.85-26.76 106.19-26.76 96.03 0Z" opacity="1" transform="matrix(1,0,0,1,0,0)" fill="#f9cc0b" class="wordmark-text-0" data-fill-palette-color="primary" id="text-0"></path></svg></g></svg></g><g transform="matrix(1,0,0,1,79.27680000000001,87.88221545864661)"><svg viewBox="0 0 112.72319999999999 13.07016257555199" height="13.07016257555199" width="112.72319999999999"><g transform="matrix(1,0,0,1,0,0)"><svg width="112.72319999999999" viewBox="4.25 -35.9 405.31 47" height="13.07016257555199" data-palette-color="#f9cc0b"><path d="M8.1 0L4.25 0 4.25-34.6 24.95-34.6 24.95-31.2 8.1-31.2 8.1-17.7 22.35-17.7 22.35-14.3 8.1-14.3 8.1 0ZM44.6-4.7L44.6-25 48.35-25 48.35 0 44.6 0 44.6-1.75Q40.85 0.5 37.2 0.5L37.2 0.5Q32.1 0.5 30.42-2.15 28.75-4.8 28.75-11.95L28.75-11.95 28.75-25 32.5-25 32.5-12Q32.5-6.55 33.45-4.7 34.4-2.85 37.75-2.85L37.75-2.85Q39.4-2.85 41.1-3.33 42.8-3.8 43.7-4.25L43.7-4.25 44.6-4.7ZM59.6 0L55.85 0 55.85-35.9 59.6-35.9 59.6 0ZM71.14 0L67.39 0 67.39-35.9 71.14-35.9 71.14 0ZM86.49-22.15L86.49-22.15Q81.04-22.15 81.04-18.35L81.04-18.35Q81.04-16.6 82.29-15.88 83.54-15.15 87.99-14.38 92.44-13.6 94.29-12.2 96.14-10.8 96.14-6.95 96.14-3.1 93.67-1.3 91.19 0.5 86.44 0.5L86.44 0.5Q83.34 0.5 79.14-0.2L79.14-0.2 77.64-0.45 77.84-3.7Q83.54-2.85 86.44-2.85 89.34-2.85 90.87-3.78 92.39-4.7 92.39-6.88 92.39-9.05 91.09-9.83 89.79-10.6 85.39-11.3 80.99-12 79.14-13.35 77.29-14.7 77.29-18.35 77.29-22 79.87-23.75 82.44-25.5 86.29-25.5L86.29-25.5Q89.34-25.5 93.94-24.8L93.94-24.8 95.34-24.55 95.24-21.35Q89.69-22.15 86.49-22.15ZM114.84-25L114.84-21.75 106.89-21.75 106.89-9.8Q106.89-5.5 107.51-4.15 108.14-2.8 110.49-2.8L110.49-2.8 114.94-3.1 115.19 0Q111.84 0.55 110.09 0.55L110.09 0.55Q106.19 0.55 104.69-1.35 103.19-3.25 103.19-8.6L103.19-8.6 103.19-21.75 99.64-21.75 99.64-25 103.19-25 103.19-32.65 106.89-32.65 106.89-25 114.84-25ZM137.09-17.45L137.09-17.45 137.09-4.65Q137.24-2.8 139.99-2.45L139.99-2.45 139.84 0.5Q135.89 0.5 133.89-1.5L133.89-1.5Q129.39 0.5 124.89 0.5L124.89 0.5Q121.44 0.5 119.64-1.45 117.84-3.4 117.84-7.05 117.84-10.7 119.69-12.43 121.54-14.15 125.49-14.55L125.49-14.55 133.34-15.3 133.34-17.45Q133.34-20 132.24-21.1 131.14-22.2 129.24-22.2L129.24-22.2Q125.24-22.2 120.94-21.7L120.94-21.7 119.39-21.55 119.24-24.4Q124.74-25.5 128.99-25.5 133.24-25.5 135.16-23.55 137.09-21.6 137.09-17.45ZM121.69-7.25L121.69-7.25Q121.69-2.65 125.49-2.65L125.49-2.65Q128.89-2.65 132.19-3.8L132.19-3.8 133.34-4.2 133.34-12.45 125.94-11.75Q123.69-11.55 122.69-10.45 121.69-9.35 121.69-7.25ZM153.83-25.5L153.83-25.5Q155.48-25.5 159.43-24.9L159.43-24.9 160.63-24.75 160.48-21.7Q156.48-22.15 154.58-22.15L154.58-22.15Q150.33-22.15 148.81-20.13 147.28-18.1 147.28-12.63 147.28-7.15 148.71-5 150.13-2.85 154.63-2.85L154.63-2.85 160.53-3.3 160.68-0.2Q156.03 0.5 153.73 0.5L153.73 0.5Q147.88 0.5 145.66-2.5 143.43-5.5 143.43-12.63 143.43-19.75 145.83-22.63 148.23-25.5 153.83-25.5ZM170.03-11.45L170.03 0 166.28 0 166.28-35.9 170.03-35.9 170.03-14.7 173.93-14.9 181.08-25 185.33-25 177.18-13.5 185.68 0 181.43 0 173.98-11.6 170.03-11.45ZM214.23 0L214.23 0 201.88 0 201.88-34.6 214.23-34.6Q222.68-34.6 225.43-27.9L225.43-27.9Q227.03-24.05 227.03-17.8L227.03-17.8Q227.03-4.75 220.53-1.35L220.53-1.35Q217.93 0 214.23 0ZM223.08-17.8L223.08-17.8Q223.08-27.75 218.63-30.2L218.63-30.2Q216.83-31.2 214.23-31.2L214.23-31.2 205.73-31.2 205.73-3.4 214.23-3.4Q223.08-3.4 223.08-17.8ZM250.47-3.1L250.47-3.1 251.92-3.25 252.02-0.3Q246.32 0.5 242.27 0.5L242.27 0.5Q236.87 0.5 234.62-2.63 232.37-5.75 232.37-12.35L232.37-12.35Q232.37-25.5 242.82-25.5L242.82-25.5Q247.87-25.5 250.37-22.68 252.87-19.85 252.87-13.8L252.87-13.8 252.67-10.95 236.17-10.95Q236.17-6.8 237.67-4.8 239.17-2.8 242.9-2.8 246.62-2.8 250.47-3.1ZM236.12-13.95L249.12-13.95Q249.12-18.55 247.65-20.45 246.17-22.35 242.85-22.35 239.52-22.35 237.85-20.35 236.17-18.35 236.12-13.95L236.12-13.95ZM263.02 0L255.97-25 259.97-25 265.82-3.25 267.67-3.25 273.72-25 277.57-25 270.52 0 263.02 0ZM298.92-3.1L298.92-3.1 300.37-3.25 300.47-0.3Q294.77 0.5 290.72 0.5L290.72 0.5Q285.32 0.5 283.07-2.63 280.82-5.75 280.82-12.35L280.82-12.35Q280.82-25.5 291.27-25.5L291.27-25.5Q296.32-25.5 298.82-22.68 301.32-19.85 301.32-13.8L301.32-13.8 301.12-10.95 284.62-10.95Q284.62-6.8 286.12-4.8 287.62-2.8 291.34-2.8 295.07-2.8 298.92-3.1ZM284.57-13.95L297.57-13.95Q297.57-18.55 296.09-20.45 294.62-22.35 291.29-22.35 287.97-22.35 286.29-20.35 284.62-18.35 284.57-13.95L284.57-13.95ZM311.22 0L307.47 0 307.47-35.9 311.22-35.9 311.22 0ZM317.61-12.55Q317.61-19.4 320.06-22.45 322.51-25.5 328.34-25.5 334.16-25.5 336.59-22.45 339.01-19.4 339.01-12.55 339.01-5.7 336.71-2.6 334.41 0.5 328.31 0.5 322.21 0.5 319.91-2.6 317.61-5.7 317.61-12.55ZM321.46-12.63Q321.46-7.15 322.79-4.95 324.11-2.75 328.34-2.75 332.56-2.75 333.86-4.93 335.16-7.1 335.16-12.6 335.16-18.1 333.71-20.18 332.26-22.25 328.34-22.25 324.41-22.25 322.94-20.18 321.46-18.1 321.46-12.63ZM348.86 11.1L345.11 11.1 345.11-25 348.81-25 348.81-23.2Q352.61-25.5 356.31-25.5L356.31-25.5Q361.06-25.5 363.21-22.48 365.36-19.45 365.36-12.5 365.36-5.55 362.84-2.53 360.31 0.5 354.46 0.5L354.46 0.5Q351.41 0.5 348.86-0.05L348.86-0.05 348.86 11.1ZM355.76-22.15L355.76-22.15Q354.26-22.15 352.54-21.65 350.81-21.15 349.81-20.65L349.81-20.65 348.86-20.15 348.86-3.3Q352.41-2.75 354.26-2.75L354.26-2.75Q358.31-2.75 359.94-5.05 361.56-7.35 361.56-12.55 361.56-17.75 360.09-19.95 358.61-22.15 355.76-22.15ZM388.46-3.1L388.46-3.1 389.91-3.25 390.01-0.3Q384.31 0.5 380.26 0.5L380.26 0.5Q374.86 0.5 372.61-2.63 370.36-5.75 370.36-12.35L370.36-12.35Q370.36-25.5 380.81-25.5L380.81-25.5Q385.86-25.5 388.36-22.68 390.86-19.85 390.86-13.8L390.86-13.8 390.66-10.95 374.16-10.95Q374.16-6.8 375.66-4.8 377.16-2.8 380.88-2.8 384.61-2.8 388.46-3.1ZM374.11-13.95L387.11-13.95Q387.11-18.55 385.63-20.45 384.16-22.35 380.83-22.35 377.51-22.35 375.83-20.35 374.16-18.35 374.11-13.95L374.11-13.95ZM400.46 0L396.71 0 396.71-25 400.41-25 400.41-21.6Q404.76-24.6 409.56-25.55L409.56-25.55 409.56-21.75Q407.46-21.35 405.18-20.5 402.91-19.65 401.71-19L401.71-19 400.46-18.35 400.46 0Z" opacity="1" transform="matrix(1,0,0,1,0,0)" fill="#f9cc0b" class="slogan-text-1" data-fill-palette-color="secondary" id="text-1"></path></svg></g></svg></g></svg></g></svg></g></svg></g></svg></g></svg></g><defs></defs></svg><rect width="320" height="360" fill="none" stroke="none" visibility="hidden"></rect></g></svg></g></svg>